<svg width="226" height="36" viewBox="0 0 226 36" fill="none" xmlns="http://www.w3.org/2000/svg">
<path d="M41.0034 25V14.2188H44.4019L46.6431 21.1548L48.877 14.2188H52.2827V25H49.7412V18.5693L47.6904 25H45.5884L43.5376 18.5693V25H41.0034ZM56.9556 25.2344C55.0732 25.2344 53.8062 24.2236 53.8062 22.8833C53.8062 20.9497 55.7178 20.6494 57.2192 20.4297C58.186 20.2832 58.9844 20.1587 58.9844 19.646C58.9844 19.1626 58.5156 18.8037 57.8052 18.8037C57.1021 18.8037 56.6333 19.1479 56.6333 19.668H54.1724C54.1724 18.0859 55.6226 17.0312 57.8052 17.0312C60.0024 17.0312 61.4453 18.1006 61.4453 19.6899V23.5571C61.4453 23.9966 61.6504 24.5605 61.8701 25H59.4019C59.3066 24.8096 59.2261 24.6045 59.1528 24.3921C58.6401 24.8828 57.915 25.2344 56.9556 25.2344ZM57.4829 23.4619C58.3545 23.4619 58.9844 22.9053 58.9844 22.0557V21.5869C58.772 21.6382 58.5449 21.6748 58.3325 21.7041C57.2339 21.8579 56.2744 22.019 56.2744 22.7368C56.2744 23.1982 56.6699 23.4619 57.4829 23.4619ZM62.4048 25L65.1953 20.9058L62.7124 17.2656H65.5322L66.6089 18.9355L67.6855 17.2656H70.498L68.0225 20.9058L70.813 25H67.9932L66.6089 22.9053L65.2246 25H62.4048ZM73.1274 16.3135C72.3584 16.3135 71.7358 15.6982 71.7358 14.9219C71.7358 14.1528 72.3584 13.5303 73.1274 13.5303C73.8965 13.5303 74.519 14.1528 74.519 14.9219C74.519 15.6982 73.8965 16.3135 73.1274 16.3135ZM71.8604 25V17.2656H74.3945V25H71.8604ZM76.1523 25V17.2656H78.4814V17.9175C78.9209 17.4048 79.5288 17.0312 80.3931 17.0312C81.228 17.0312 82.0264 17.3608 82.583 17.9248C83.1616 17.3975 83.916 17.0312 84.8755 17.0312C86.8311 17.0312 88.2886 18.269 88.2886 20.0854V25H85.7544V20.0854C85.7544 19.397 85.3076 18.9282 84.6191 18.9282C83.938 18.9282 83.4912 19.397 83.4912 20.0928V25H80.9497V20.0854C80.9497 19.397 80.5029 18.9282 79.8218 18.9282C79.1406 18.9282 78.6865 19.397 78.6865 20.0928V25H76.1523ZM93.7378 25.2344C91.2842 25.2344 89.6509 23.5938 89.6509 21.1328C89.6509 18.6719 91.2842 17.0312 93.7378 17.0312C96.1987 17.0312 97.8174 18.6865 97.8174 21.1328C97.8174 21.3892 97.8027 21.6382 97.7588 21.8799H92.2656C92.4121 22.8101 92.9907 23.4106 93.7378 23.4106C94.2651 23.4106 94.7266 23.0884 94.9609 22.5757H97.605C97.0996 24.2163 95.6714 25.2344 93.7378 25.2344ZM92.2656 20.3857H95.2026C95.0562 19.4556 94.4775 18.855 93.7378 18.855C92.9907 18.855 92.4121 19.4556 92.2656 20.3857ZM103.215 25V14.2188H106.614L108.855 21.1548L111.089 14.2188H114.495V25H111.953V18.5693L109.902 25H107.8L105.75 18.5693V25H103.215ZM120.061 25.2344C117.607 25.2344 115.974 23.5938 115.974 21.1328C115.974 18.6719 117.607 17.0312 120.061 17.0312C122.522 17.0312 124.141 18.6865 124.141 21.1328C124.141 21.3892 124.126 21.6382 124.082 21.8799H118.589C118.735 22.8101 119.314 23.4106 120.061 23.4106C120.588 23.4106 121.05 23.0884 121.284 22.5757H123.928C123.423 24.2163 121.995 25.2344 120.061 25.2344ZM118.589 20.3857H121.526C121.379 19.4556 120.801 18.855 120.061 18.855C119.314 18.855 118.735 19.4556 118.589 20.3857ZM130.732 18.9722C130.396 18.9282 130.066 18.8989 129.766 18.8989C128.755 18.8989 128.037 19.2285 128.037 20.21V25H125.503V17.2656H127.832V17.9102C128.286 17.4048 128.938 17.0312 129.883 17.0312C130.176 17.0312 130.461 17.0679 130.732 17.1411V18.9722ZM135.5 25.2344C133.04 25.2344 131.399 23.5938 131.399 21.1328C131.399 18.6719 133.04 17.0312 135.5 17.0312C137.8 17.0312 139.104 18.2983 139.331 20.1953H136.797C136.65 19.4336 136.277 18.9282 135.5 18.9282C134.556 18.9282 133.933 19.8071 133.933 21.1328C133.933 22.4585 134.556 23.3374 135.5 23.3374C136.277 23.3374 136.65 22.832 136.797 22.0703H139.331C139.104 23.9673 137.8 25.2344 135.5 25.2344ZM141.902 16.3135C141.133 16.3135 140.51 15.6982 140.51 14.9219C140.51 14.1528 141.133 13.5303 141.902 13.5303C142.671 13.5303 143.293 14.1528 143.293 14.9219C143.293 15.6982 142.671 16.3135 141.902 16.3135ZM140.635 25V17.2656H143.169V25H140.635ZM148.611 25.2344C146.157 25.2344 144.524 23.5938 144.524 21.1328C144.524 18.6719 146.157 17.0312 148.611 17.0312C151.072 17.0312 152.69 18.6865 152.69 21.1328C152.69 21.3892 152.676 21.6382 152.632 21.8799H147.139C147.285 22.8101 147.864 23.4106 148.611 23.4106C149.138 23.4106 149.6 23.0884 149.834 22.5757H152.478C151.973 24.2163 150.544 25.2344 148.611 25.2344ZM147.139 20.3857H150.076C149.929 19.4556 149.351 18.855 148.611 18.855C147.864 18.855 147.285 19.4556 147.139 20.3857ZM159.282 18.9722C158.945 18.9282 158.616 18.8989 158.315 18.8989C157.305 18.8989 156.587 19.2285 156.587 20.21V25H154.053V17.2656H156.382V17.9102C156.836 17.4048 157.488 17.0312 158.433 17.0312C158.726 17.0312 159.011 17.0679 159.282 17.1411V18.9722ZM164.08 22.1875V20.0781H168.408V22.1875H164.08ZM174.011 25C174.011 22.9639 175.659 21.7334 177.175 20.5981C178.472 19.624 179.68 18.7231 179.68 17.4414C179.68 16.7383 179.219 16.2695 178.311 16.2695C177.373 16.2695 176.758 17.0459 176.758 18.2104H174.187C174.187 15.6763 175.842 13.9844 178.311 13.9844C180.793 13.9844 182.434 15.376 182.434 17.4414C182.434 19.4556 180.823 20.7007 179.321 21.8286C178.933 22.1216 178.56 22.3999 178.281 22.7148H182.434V25H174.011ZM188.938 25.2344C185.884 25.2344 184.36 23.3594 184.36 19.6094C184.36 15.8594 185.884 13.9844 188.938 13.9844C191.985 13.9844 193.508 15.8594 193.508 19.6094C193.508 23.3594 191.985 25.2344 188.938 25.2344ZM188.938 23.0371C190.212 23.0371 190.857 21.8945 190.857 19.6094C190.857 17.3242 190.212 16.1816 188.938 16.1816C187.656 16.1816 187.019 17.3242 187.019 19.6094C187.019 21.8945 187.656 23.0371 188.938 23.0371ZM195.427 25C195.427 22.9639 197.075 21.7334 198.591 20.5981C199.888 19.624 201.096 18.7231 201.096 17.4414C201.096 16.7383 200.635 16.2695 199.727 16.2695C198.789 16.2695 198.174 17.0459 198.174 18.2104H195.603C195.603 15.6763 197.258 13.9844 199.727 13.9844C202.209 13.9844 203.85 15.376 203.85 17.4414C203.85 19.4556 202.239 20.7007 200.737 21.8286C200.349 22.1216 199.976 22.3999 199.697 22.7148H203.85V25H195.427ZM210.742 25V22.5684H205.82V20.6055L210.742 14.2188H213.306V20.5688H214.88V22.5684H213.306V25H210.742ZM208.391 20.5688H210.742V17.478L208.391 20.5688Z" fill="white"/>
<path d="M29.5 20.0233C29.5 27.4481 23.2765 33.5465 15.5 33.5465C7.7235 33.5465 1.5 27.4481 1.5 20.0233C1.5 12.5984 7.7235 6.5 15.5 6.5C23.2765 6.5 29.5 12.5984 29.5 20.0233Z" stroke="white" stroke-width="3"/>
<path d="M15.8809 27.3125C19.7285 27.3125 21.8672 24.998 22.3066 21.5312H18.6348C18.3711 23.1719 17.5312 24.2656 15.8809 24.2656C13.918 24.2656 12.5996 22.4785 12.5996 19.8125C12.5996 17.1465 13.918 15.3594 15.8809 15.3594C17.5312 15.3594 18.3711 16.4531 18.6348 18.0938H22.3066C21.8672 14.627 19.7285 12.3125 15.8809 12.3125C11.7207 12.3125 8.92773 15.3203 8.92773 19.8125C8.92773 24.3047 11.7207 27.3125 15.8809 27.3125Z" fill="white"/>
</svg>
