<svg width="226" height="36" viewBox="0 0 226 36" fill="none" xmlns="http://www.w3.org/2000/svg">
<path d="M41.0034 25H43.5376V18.5693L45.5884 25H47.6904L49.7412 18.5693V25H52.2827V14.2188H48.877L46.6431 21.1548L44.4019 14.2188H41.0034V25ZM56.9556 25.2344C57.915 25.2344 58.6401 24.8828 59.1528 24.3921C59.2261 24.6045 59.3066 24.8096 59.4019 25H61.8701C61.6504 24.5605 61.4453 23.9966 61.4453 23.5571V19.6899C61.4453 18.1006 60.0024 17.0312 57.8052 17.0312C55.6226 17.0312 54.1724 18.0859 54.1724 19.668H56.6333C56.6333 19.1479 57.1021 18.8037 57.8052 18.8037C58.5156 18.8037 58.9844 19.1626 58.9844 19.646C58.9844 20.1587 58.186 20.2832 57.2192 20.4297C55.7178 20.6494 53.8062 20.9497 53.8062 22.8833C53.8062 24.2236 55.0732 25.2344 56.9556 25.2344ZM57.4829 23.4619C56.6699 23.4619 56.2744 23.1982 56.2744 22.7368C56.2744 22.019 57.2339 21.8579 58.3325 21.7041C58.5449 21.6748 58.772 21.6382 58.9844 21.5869V22.0557C58.9844 22.9053 58.3545 23.4619 57.4829 23.4619ZM62.4048 25H65.2246L66.6089 22.9053L67.9932 25H70.813L68.0225 20.9058L70.498 17.2656H67.6855L66.6089 18.9355L65.5322 17.2656H62.7124L65.1953 20.9058L62.4048 25ZM73.1274 16.3135C73.8965 16.3135 74.519 15.6982 74.519 14.9219C74.519 14.1528 73.8965 13.5303 73.1274 13.5303C72.3584 13.5303 71.7358 14.1528 71.7358 14.9219C71.7358 15.6982 72.3584 16.3135 73.1274 16.3135ZM71.8604 25H74.3945V17.2656H71.8604V25ZM76.1523 25H78.6865V20.0928C78.6865 19.397 79.1406 18.9282 79.8218 18.9282C80.5029 18.9282 80.9497 19.397 80.9497 20.0854V25H83.4912V20.0928C83.4912 19.397 83.938 18.9282 84.6191 18.9282C85.3076 18.9282 85.7544 19.397 85.7544 20.0854V25H88.2886V20.0854C88.2886 18.269 86.8311 17.0312 84.8755 17.0312C83.916 17.0312 83.1616 17.3975 82.583 17.9248C82.0264 17.3608 81.228 17.0312 80.3931 17.0312C79.5288 17.0312 78.9209 17.4048 78.4814 17.9175V17.2656H76.1523V25ZM93.7378 25.2344C95.6714 25.2344 97.0996 24.2163 97.605 22.5757H94.9609C94.7266 23.0884 94.2651 23.4106 93.7378 23.4106C92.9907 23.4106 92.4121 22.8101 92.2656 21.8799H97.7588C97.8027 21.6382 97.8174 21.3892 97.8174 21.1328C97.8174 18.6865 96.1987 17.0312 93.7378 17.0312C91.2842 17.0312 89.6509 18.6719 89.6509 21.1328C89.6509 23.5938 91.2842 25.2344 93.7378 25.2344ZM92.2656 20.3857C92.4121 19.4556 92.9907 18.855 93.7378 18.855C94.4775 18.855 95.0562 19.4556 95.2026 20.3857H92.2656ZM103.215 25H105.75V18.5693L107.8 25H109.902L111.953 18.5693V25H114.495V14.2188H111.089L108.855 21.1548L106.614 14.2188H103.215V25ZM120.061 25.2344C121.995 25.2344 123.423 24.2163 123.928 22.5757H121.284C121.05 23.0884 120.588 23.4106 120.061 23.4106C119.314 23.4106 118.735 22.8101 118.589 21.8799H124.082C124.126 21.6382 124.141 21.3892 124.141 21.1328C124.141 18.6865 122.522 17.0312 120.061 17.0312C117.607 17.0312 115.974 18.6719 115.974 21.1328C115.974 23.5938 117.607 25.2344 120.061 25.2344ZM118.589 20.3857C118.735 19.4556 119.314 18.855 120.061 18.855C120.801 18.855 121.379 19.4556 121.526 20.3857H118.589ZM130.732 18.9722V17.1411C130.461 17.0679 130.176 17.0312 129.883 17.0312C128.938 17.0312 128.286 17.4048 127.832 17.9102V17.2656H125.503V25H128.037V20.21C128.037 19.2285 128.755 18.8989 129.766 18.8989C130.066 18.8989 130.396 18.9282 130.732 18.9722ZM135.5 25.2344C137.8 25.2344 139.104 23.9673 139.331 22.0703H136.797C136.65 22.832 136.277 23.3374 135.5 23.3374C134.556 23.3374 133.933 22.4585 133.933 21.1328C133.933 19.8071 134.556 18.9282 135.5 18.9282C136.277 18.9282 136.65 19.4336 136.797 20.1953H139.331C139.104 18.2983 137.8 17.0312 135.5 17.0312C133.04 17.0312 131.399 18.6719 131.399 21.1328C131.399 23.5938 133.04 25.2344 135.5 25.2344ZM141.902 16.3135C142.671 16.3135 143.293 15.6982 143.293 14.9219C143.293 14.1528 142.671 13.5303 141.902 13.5303C141.133 13.5303 140.51 14.1528 140.51 14.9219C140.51 15.6982 141.133 16.3135 141.902 16.3135ZM140.635 25H143.169V17.2656H140.635V25ZM148.611 25.2344C150.544 25.2344 151.973 24.2163 152.478 22.5757H149.834C149.6 23.0884 149.138 23.4106 148.611 23.4106C147.864 23.4106 147.285 22.8101 147.139 21.8799H152.632C152.676 21.6382 152.69 21.3892 152.69 21.1328C152.69 18.6865 151.072 17.0312 148.611 17.0312C146.157 17.0312 144.524 18.6719 144.524 21.1328C144.524 23.5938 146.157 25.2344 148.611 25.2344ZM147.139 20.3857C147.285 19.4556 147.864 18.855 148.611 18.855C149.351 18.855 149.929 19.4556 150.076 20.3857H147.139ZM159.282 18.9722V17.1411C159.011 17.0679 158.726 17.0312 158.433 17.0312C157.488 17.0312 156.836 17.4048 156.382 17.9102V17.2656H154.053V25H156.587V20.21C156.587 19.2285 157.305 18.8989 158.315 18.8989C158.616 18.8989 158.945 18.9282 159.282 18.9722ZM164.08 22.1875H168.408V20.0781H164.08V22.1875ZM174.011 25H182.434V22.7148H178.281C178.56 22.3999 178.933 22.1216 179.321 21.8286C180.823 20.7007 182.434 19.4556 182.434 17.4414C182.434 15.376 180.793 13.9844 178.311 13.9844C175.842 13.9844 174.187 15.6763 174.187 18.2104H176.758C176.758 17.0459 177.373 16.2695 178.311 16.2695C179.219 16.2695 179.68 16.7383 179.68 17.4414C179.68 18.7231 178.472 19.624 177.175 20.5981C175.659 21.7334 174.011 22.9639 174.011 25ZM188.938 25.2344C191.985 25.2344 193.508 23.3594 193.508 19.6094C193.508 15.8594 191.985 13.9844 188.938 13.9844C185.884 13.9844 184.36 15.8594 184.36 19.6094C184.36 23.3594 185.884 25.2344 188.938 25.2344ZM188.938 23.0371C187.656 23.0371 187.019 21.8945 187.019 19.6094C187.019 17.3242 187.656 16.1816 188.938 16.1816C190.212 16.1816 190.857 17.3242 190.857 19.6094C190.857 21.8945 190.212 23.0371 188.938 23.0371ZM195.427 25H203.85V22.7148H199.697C199.976 22.3999 200.349 22.1216 200.737 21.8286C202.239 20.7007 203.85 19.4556 203.85 17.4414C203.85 15.376 202.209 13.9844 199.727 13.9844C197.258 13.9844 195.603 15.6763 195.603 18.2104H198.174C198.174 17.0459 198.789 16.2695 199.727 16.2695C200.635 16.2695 201.096 16.7383 201.096 17.4414C201.096 18.7231 199.888 19.624 198.591 20.5981C197.075 21.7334 195.427 22.9639 195.427 25ZM210.361 25.2344C212.983 25.2344 214.734 23.8647 214.734 21.792C214.734 20.5762 214.133 19.7705 213.093 19.3164C213.87 18.7744 214.316 17.9761 214.316 16.9727C214.316 15.1929 212.749 13.9844 210.361 13.9844C207.974 13.9844 206.384 15.376 206.384 17.4561H208.962C208.962 16.687 209.504 16.1816 210.325 16.1816C211.13 16.1816 211.562 16.5039 211.562 17.1997C211.562 17.9028 211.145 18.5107 210.266 18.5107H209.49V20.4077H210.361C211.328 20.4077 211.98 20.8838 211.98 21.7041C211.98 22.5464 211.379 23.0371 210.325 23.0371C209.263 23.0371 208.545 22.356 208.545 21.3452H205.974C205.974 23.6743 207.725 25.2344 210.361 25.2344Z" fill="white"/>
<path d="M29.5 20.0233C29.5 27.4481 23.2765 33.5465 15.5 33.5465C7.7235 33.5465 1.5 27.4481 1.5 20.0233C1.5 12.5984 7.7235 6.5 15.5 6.5C23.2765 6.5 29.5 12.5984 29.5 20.0233Z" stroke="white" stroke-width="3"/>
<path d="M15.8809 27.3125C19.7285 27.3125 21.8672 24.998 22.3066 21.5312H18.6348C18.3711 23.1719 17.5312 24.2656 15.8809 24.2656C13.918 24.2656 12.5996 22.4785 12.5996 19.8125C12.5996 17.1465 13.918 15.3594 15.8809 15.3594C17.5312 15.3594 18.3711 16.4531 18.6348 18.0938H22.3066C21.8672 14.627 19.7285 12.3125 15.8809 12.3125C11.7207 12.3125 8.92773 15.3203 8.92773 19.8125C8.92773 24.3047 11.7207 27.3125 15.8809 27.3125Z" fill="white"/>
</svg>
