<svg width="60" height="60" viewBox="0 0 60 60" fill="none" xmlns="http://www.w3.org/2000/svg">
<circle cx="30" cy="30" r="26.5" stroke="white" stroke-width="7"/>
<path d="M22.5435 49.0725V55.0327C29.7764 57.099 35.4202 55.8937 37.3381 55.0327V49.4698C37.3381 47.4831 36.7216 47.8804 35.2833 45.2976C46.1737 43.5096 46.7901 39.3374 48.4339 33.9731C48.8449 28.8076 47.8175 27.6155 45.5572 23.8407C46.3791 18.8738 45.9682 18.8738 45.1463 16.291C42.475 16.6884 42.0641 16.6884 37.3381 19.0725C30.5572 17.0857 25.8312 18.4764 22.749 19.0725C20.2833 17.1652 16.3791 16.4235 14.7353 16.291C13.9819 17.6817 12.8449 21.1387 14.3244 23.8407C8.77641 30.7943 12.6805 38.7413 15.3518 42.1188C19.0504 44.7016 21.9271 44.7016 25.0093 45.2976C23.0367 46.0923 22.5435 48.1453 22.5435 49.0725Z" fill="white"/>
</svg>
