<svg width="87" height="84" viewBox="0 0 87 84" fill="none" xmlns="http://www.w3.org/2000/svg">
<path d="M11.256 80H25.56V32H25.752L40.92 62.72H52.536L67.8 31.52H67.992V80H82.104V11.456H62.232L46.68 41.696L30.84 11.456H11.256V80Z" fill="white"/>
<path d="M8.256 78H22.56V30H22.752L37.92 60.72H49.536L64.8 29.52H64.992V78H79.104V9.456H59.232L43.68 39.696L27.84 9.456H8.256V78Z" fill="black"/>
<path d="M8.256 78H7.256V79H8.256V78ZM22.56 78V79H23.56V78H22.56ZM22.56 30V29H21.56V30H22.56ZM22.752 30L23.6487 29.5573L23.3735 29H22.752V30ZM37.92 60.72L37.0233 61.1627L37.2985 61.72H37.92V60.72ZM49.536 60.72V61.72H50.16L50.4343 61.1595L49.536 60.72ZM64.8 29.52V28.52H64.176L63.9017 29.0805L64.8 29.52ZM64.992 29.52H65.992V28.52H64.992V29.52ZM64.992 78H63.992V79H64.992V78ZM79.104 78V79H80.104V78H79.104ZM79.104 9.456H80.104V8.456H79.104V9.456ZM59.232 9.456V8.456H58.6218L58.3427 8.99865L59.232 9.456ZM43.68 39.696L42.7942 40.16L43.6881 41.8667L44.5693 40.1533L43.68 39.696ZM27.84 9.456L28.7258 8.99199L28.4451 8.456H27.84V9.456ZM8.256 9.456V8.456H7.256V9.456H8.256ZM8.256 79H22.56V77H8.256V79ZM23.56 78V30H21.56V78H23.56ZM22.56 31H22.752V29H22.56V31ZM21.8553 30.4427L37.0233 61.1627L38.8167 60.2773L23.6487 29.5573L21.8553 30.4427ZM37.92 61.72H49.536V59.72H37.92V61.72ZM50.4343 61.1595L65.6983 29.9595L63.9017 29.0805L48.6377 60.2805L50.4343 61.1595ZM64.8 30.52H64.992V28.52H64.8V30.52ZM63.992 29.52V78H65.992V29.52H63.992ZM64.992 79H79.104V77H64.992V79ZM80.104 78V9.456H78.104V78H80.104ZM79.104 8.456H59.232V10.456H79.104V8.456ZM58.3427 8.99865L42.7907 39.2387L44.5693 40.1533L60.1213 9.91334L58.3427 8.99865ZM44.5658 39.232L28.7258 8.99199L26.9542 9.92L42.7942 40.16L44.5658 39.232ZM27.84 8.456H8.256V10.456H27.84V8.456ZM7.256 9.456V78H9.256V9.456H7.256Z" fill="white"/>
</svg>
