<svg width="190" height="250" viewBox="0 0 190 250" fill="none" xmlns="http://www.w3.org/2000/svg">
<g clip-path="url(#clip0_59_99)">
<path d="M124.304 52.0122C131.591 52.0122 136.692 55.1382 139.606 61.39H140.578C144.869 59.2767 147.744 57.2074 149.201 55.1821L148.229 54.1255L149.201 53.0688H154.909C156.852 56.0627 160.698 59.1885 166.447 62.4466C171.547 68.0818 174.098 72.5727 174.098 75.9186V80.1454L162.56 97.8438L163.532 101.014C163.532 102.335 158.107 108.586 147.258 119.769C146.772 123.82 143.25 129.367 136.692 136.411L137.663 137.468V138.524C133.048 144.336 129.85 150.94 128.069 158.336C125.316 159.481 120.863 169.211 114.71 187.526C113.819 187.614 110.297 196.287 104.143 213.546C102.686 213.986 99.8119 218.169 95.5207 226.094C93.1727 226.094 91.5938 228.867 90.7843 234.415L81.1898 250H80.2182L77.3035 247.887L76.3319 248.943H75.3603C70.6643 241.283 67.1828 237.452 64.9157 237.452L63.9442 238.509L57.1431 230.188V229.131L90.7843 147.902H89.8128C68.9236 154.858 52.6091 158.336 40.869 158.336C26.5381 158.336 15.6888 150.676 8.32088 135.355L7.3493 134.298H6.37772L7.3493 133.241V131.26L5.40614 129.147L4.55599 130.204C1.9651 125.449 0.669647 121.266 0.669647 117.656V116.599C0.669647 101.806 21.4373 84.812 62.9726 65.6165L65.7658 66.541C90.4604 56.8551 109.973 52.0122 124.304 52.0122ZM44.7553 118.712V119.769H45.7269C67.6686 117.216 94.1849 106.077 125.275 86.353V85.2964H124.304C111.592 86.177 88.5982 94.8941 55.3214 111.448C52.0018 115.058 48.4798 117.48 44.7553 118.712Z" fill="#322E88"/>
<path d="M139.606 61.3898L138.603 61.9429L138.916 62.6131H139.606V61.3898ZM140.578 61.3898V62.6131H140.821L141.042 62.5041L140.578 61.3898ZM149.201 55.1819L150.087 55.936L150.701 55.083L149.996 54.3169L149.201 55.1819ZM148.229 54.1253L147.434 53.2603L146.638 54.1253L147.434 54.9904L148.229 54.1253ZM149.201 53.0687V51.8452H148.735L148.406 52.2036L149.201 53.0687ZM154.909 53.0687L155.828 52.3631L155.492 51.8452H154.909V53.0687ZM166.447 62.4465L167.248 61.5881L167.124 61.4506L166.966 61.3615L166.447 62.4465ZM174.098 80.1452L175.016 80.8526L175.223 80.5347V80.1452H174.098ZM162.56 97.8437L161.642 97.1363L161.313 97.6421L161.493 98.2307L162.56 97.8437ZM163.532 101.014H164.657V100.815L164.599 100.627L163.532 101.014ZM147.258 119.769L146.484 118.881L146.194 119.18L146.142 119.611L147.258 119.769ZM136.692 136.411L135.901 135.541L135.096 136.406L135.896 137.276L136.692 136.411ZM137.663 137.468H138.788V136.961L138.459 136.603L137.663 137.468ZM137.663 138.524L138.515 139.324L138.788 138.98V138.524H137.663ZM128.069 158.336L128.471 159.479L129.011 159.255L129.157 158.646L128.069 158.336ZM114.71 187.526L114.811 188.744L115.521 188.674L115.766 187.946L114.71 187.526ZM104.143 213.546L104.445 214.725L104.988 214.56L105.192 213.988L104.143 213.546ZM95.5208 226.093V227.317H96.1637L96.49 226.714L95.5208 226.093ZM90.7844 234.414L91.7191 235.095L91.8566 234.872L91.8953 234.606L90.7844 234.414ZM81.1898 250V251.223H81.7906L82.1246 250.68L81.1898 250ZM80.2182 250L79.5943 251.018L79.8777 251.223H80.2182V250ZM77.3035 247.887L77.9275 246.869L77.1602 246.312L76.5081 247.021L77.3035 247.887ZM76.3319 248.943V250.167H76.7978L77.1273 249.808L76.3319 248.943ZM75.3603 248.943L74.4244 249.622L74.7582 250.167H75.3603V248.943ZM64.9157 237.452V236.229H64.4499L64.1203 236.587L64.9157 237.452ZM63.9442 238.509L63.1035 239.322L63.8961 240.291L64.7396 239.374L63.9442 238.509ZM57.1431 230.188H56.0181V230.653L56.3024 231.001L57.1431 230.188ZM57.1431 229.131L56.1173 228.629L56.0181 228.868V229.131H57.1431ZM90.7844 147.902L91.8099 148.404L92.5249 146.679H90.7844V147.902ZM89.8128 147.902V146.679H89.6444L89.4832 146.732L89.8128 147.902ZM8.32089 135.354L9.31776 134.788L9.238 134.622L9.11635 134.489L8.32089 135.354ZM7.34931 134.298L8.14477 133.433L7.81528 133.074H7.34931V134.298ZM6.37773 134.298L5.58226 133.433L3.66185 135.521H6.37773V134.298ZM7.34931 133.241L8.14477 134.106L8.47425 133.748V133.241H7.34931ZM7.34931 131.26H8.47425V130.753L8.14477 130.395L7.34931 131.26ZM5.40615 129.147L6.20159 128.282L5.35135 127.357L4.55952 128.341L5.40615 129.147ZM4.556 130.203L3.58822 130.827L4.37994 132.28L5.40261 131.009L4.556 130.203ZM62.9726 65.6164L63.3 64.446L62.909 64.3164L62.5325 64.4904L62.9726 65.6164ZM65.7658 66.5409L65.4384 67.7113L65.7961 67.8296L66.1477 67.6916L65.7658 66.5409ZM44.7553 118.712L44.4279 117.542L43.6303 117.806V118.712H44.7553ZM44.7553 119.769H43.6303V120.992H44.7553V119.769ZM45.7269 119.769V120.992H45.787L45.8465 120.986L45.7269 119.769ZM125.275 86.3529L125.842 87.4095L126.4 87.0554V86.3529H125.275ZM125.275 85.2962H126.4V84.0728H125.275V85.2962ZM124.304 85.2962V84.0728H124.268L124.233 84.0753L124.304 85.2962ZM55.3214 111.448L54.8535 110.336L54.6691 110.427L54.526 110.583L55.3214 111.448ZM124.304 53.2355C127.801 53.2355 130.697 53.985 133.042 55.4222C135.38 56.8546 137.236 59.01 138.603 61.9429L140.61 60.8365C139.062 57.5177 136.91 54.984 134.147 53.2906C131.392 51.6021 128.094 50.7886 124.304 50.7886V53.2355ZM139.606 62.6131H140.578V60.1664H139.606V62.6131ZM141.042 62.5041C145.365 60.3751 148.453 58.2062 150.087 55.936L148.315 54.4279C147.034 56.2082 144.373 58.1779 140.114 60.2753L141.042 62.5041ZM149.996 54.3169L149.025 53.2603L147.434 54.9904L148.406 56.047L149.996 54.3169ZM149.025 54.9904L149.996 53.9337L148.406 52.2036L147.434 53.2603L149.025 54.9904ZM149.201 54.2921H154.909V51.8452H149.201V54.2921ZM153.99 53.7743C156.094 57.0156 160.14 60.2518 165.927 63.5314L166.966 61.3615C161.256 58.1251 157.611 55.1095 155.828 52.3631L153.99 53.7743ZM165.645 63.3046C168.162 66.086 170.013 68.5447 171.228 70.684C172.451 72.8378 172.973 74.5682 172.973 75.9184H175.223C175.223 73.9228 174.469 71.7347 173.142 69.398C171.807 67.0465 169.832 64.4421 167.248 61.5881L165.645 63.3046ZM172.973 75.9184V80.1452H175.223V75.9184H172.973ZM173.18 79.4376L161.642 97.1363L163.478 98.5513L175.016 80.8526L173.18 79.4376ZM161.493 98.2307L162.465 101.401L164.599 100.627L163.627 97.4569L161.493 98.2307ZM162.407 101.014C162.407 100.825 162.468 100.818 162.303 101.128C162.171 101.378 161.952 101.724 161.627 102.177C160.982 103.078 159.993 104.3 158.645 105.853C155.955 108.954 151.904 113.294 146.484 118.881L148.032 120.657C153.461 115.061 157.547 110.684 160.281 107.533C161.646 105.96 162.692 104.672 163.402 103.681C163.756 103.187 164.045 102.741 164.252 102.352C164.426 102.024 164.657 101.533 164.657 101.014H162.407ZM146.142 119.611C145.933 121.357 145.044 123.567 143.326 126.272C141.619 128.961 139.152 132.049 135.901 135.541L137.482 137.281C140.79 133.729 143.363 130.521 145.178 127.663C146.982 124.821 148.097 122.232 148.373 119.927L146.142 119.611ZM135.896 137.276L136.868 138.333L138.459 136.603L137.487 135.546L135.896 137.276ZM136.538 137.468V138.524H138.788V137.468H136.538ZM136.812 137.725C132.085 143.677 128.806 150.448 126.981 158.026L129.157 158.646C130.895 151.431 134.011 144.995 138.515 139.324L136.812 137.725ZM127.667 157.194C126.647 157.618 125.689 158.707 124.773 160.089C123.821 161.525 122.783 163.487 121.657 165.947C119.403 170.873 116.735 177.934 113.653 187.106L115.766 187.946C118.838 178.803 121.473 171.842 123.671 167.038C124.772 164.633 125.748 162.803 126.598 161.52C127.483 160.184 128.114 159.627 128.471 159.479L127.667 157.194ZM114.608 186.308C114.19 186.349 113.899 186.601 113.771 186.723C113.613 186.873 113.473 187.053 113.354 187.225C113.112 187.575 112.847 188.048 112.562 188.614C111.986 189.756 111.255 191.425 110.371 193.603C108.599 197.966 106.173 204.47 103.095 213.103L105.192 213.988C108.268 205.363 110.679 198.901 112.429 194.591C113.306 192.432 114.007 190.838 114.535 189.79C114.801 189.26 115.006 188.907 115.151 188.698C115.224 188.591 115.258 188.558 115.253 188.564C115.249 188.568 115.216 188.599 115.156 188.634C115.098 188.668 114.979 188.728 114.811 188.744L114.608 186.308ZM103.843 212.367C103.188 212.565 102.563 213.1 101.997 213.704C101.398 214.344 100.729 215.21 99.9937 216.28C98.5202 218.425 96.7046 221.496 94.5513 225.472L96.49 226.714C98.6278 222.766 100.395 219.784 101.796 217.745C102.498 216.725 103.089 215.967 103.573 215.451C104.089 214.9 104.371 214.747 104.445 214.725L103.843 212.367ZM95.5208 224.87C93.8481 224.87 92.5488 225.896 91.6192 227.53C90.714 229.12 90.087 231.388 89.6732 234.222L91.8953 234.606C92.2912 231.894 92.8584 230.001 93.5321 228.818C94.1814 227.677 94.8454 227.317 95.5208 227.317V224.87ZM89.8494 233.734L80.2551 249.319L82.1246 250.68L91.7191 235.095L89.8494 233.734ZM81.1898 248.776H80.2182V251.223H81.1898V248.776ZM80.8422 248.982L77.9275 246.869L76.6796 248.904L79.5943 251.018L80.8422 248.982ZM76.5081 247.021L75.5365 248.078L77.1273 249.808L78.0989 248.752L76.5081 247.021ZM76.3319 247.72H75.3603V250.167H76.3319V247.72ZM76.2963 248.265C73.9323 244.408 71.8416 241.461 70.0272 239.465C69.1199 238.467 68.2541 237.675 67.4315 237.127C66.6164 236.584 65.7675 236.229 64.9157 236.229V238.676C65.1977 238.676 65.634 238.799 66.2561 239.214C66.8704 239.623 67.5938 240.268 68.4272 241.185C70.0943 243.019 72.0923 245.818 74.4244 249.622L76.2963 248.265ZM64.1203 236.587L63.1487 237.644L64.7396 239.374L65.7112 238.317L64.1203 236.587ZM64.7851 237.696L57.9838 229.375L56.3024 231.001L63.1035 239.322L64.7851 237.696ZM58.2681 230.188V229.131H56.0181V230.188H58.2681ZM58.1689 229.634L91.8099 148.404L89.7586 147.4L56.1173 228.629L58.1689 229.634ZM90.7844 146.679H89.8128V149.126H90.7844V146.679ZM89.4832 146.732C68.6259 153.678 52.4393 157.113 40.869 157.113V159.56C52.7787 159.56 69.2212 156.039 90.1421 149.072L89.4832 146.732ZM40.869 157.113C33.8967 157.113 27.8193 155.253 22.5964 151.565C17.3672 147.873 12.9324 142.304 9.31776 134.788L7.32404 135.921C11.0773 143.726 15.751 149.649 21.3712 153.617C26.9976 157.59 33.5104 159.56 40.869 159.56V157.113ZM9.11635 134.489L8.14477 133.433L6.55384 135.163L7.52544 136.219L9.11635 134.489ZM7.34931 133.074H6.37773V135.521H7.34931V133.074ZM7.17317 135.163L8.14477 134.106L6.55384 132.376L5.58226 133.433L7.17317 135.163ZM8.47425 133.241V131.26H6.22437V133.241H8.47425ZM8.14477 130.395L6.20159 128.282L4.61068 130.012L6.55384 132.125L8.14477 130.395ZM4.55952 128.341L3.7094 129.398L5.40261 131.009L6.25275 129.952L4.55952 128.341ZM5.52378 129.58C2.9855 124.921 1.7946 120.959 1.7946 117.656H-0.455292C-0.455292 121.572 0.944717 125.976 3.58822 130.827L5.52378 129.58ZM1.7946 117.656V116.599H-0.455292V117.656H1.7946ZM1.7946 116.599C1.7946 109.825 6.58161 102.198 16.9218 93.7363C27.1982 85.3271 42.6771 76.3253 63.4126 66.7421L62.5325 64.4904C41.7329 74.1031 26.0603 83.1962 15.569 91.7812C5.14153 100.314 -0.455292 108.581 -0.455292 116.599H1.7946ZM62.6451 66.7868L65.4384 67.7113L66.0935 65.3705L63.3 64.446L62.6451 66.7868ZM66.1477 67.6916C90.8038 58.0207 110.17 53.2355 124.304 53.2355V50.7886C109.776 50.7886 90.117 55.6891 65.3842 65.3901L66.1477 67.6916ZM43.6303 118.712V119.769H45.8803V118.712H43.6303ZM44.7553 120.992H45.7269V118.546H44.7553V120.992ZM45.8465 120.986C68.0148 118.406 94.6906 107.172 125.842 87.4095L124.709 85.296C93.6789 104.981 67.3224 116.025 45.6073 118.553L45.8465 120.986ZM126.4 86.3529V85.2962H124.151V86.3529H126.4ZM125.275 84.0728H124.304V86.5197H125.275V84.0728ZM124.233 84.0753C117.72 84.5263 108.677 86.971 97.1543 91.3393C85.6121 95.7151 71.5097 102.05 54.8535 110.336L55.7894 112.561C72.41 104.292 86.443 97.9914 97.8951 93.6498C109.366 89.3008 118.176 86.9465 124.375 86.5171L124.233 84.0753ZM54.526 110.583C51.3101 114.08 47.9426 116.379 44.4279 117.542L45.083 119.883C49.017 118.581 52.6933 116.036 56.1169 112.313L54.526 110.583Z" fill="white"/>
<path d="M148.324 167.058C148.324 167.058 161.761 172.596 184.048 167.058" stroke="#29C0F1" stroke-width="0.5" stroke-miterlimit="10"/>
<path d="M148.324 168.546C148.324 168.546 161.761 174.065 184.048 168.546" stroke="#29C0F1" stroke-width="0.5" stroke-miterlimit="10"/>
<path d="M148.175 169.757C148.175 169.757 161.637 175.296 183.899 169.757" stroke="#29C0F1" stroke-width="0.5" stroke-miterlimit="10"/>
<path d="M149.072 171.167C149.072 171.167 162.085 176.328 183.65 171.167" stroke="#29C0F1" stroke-width="0.5" stroke-miterlimit="10"/>
<path d="M149.371 172.675C149.371 172.675 161.986 177.539 182.877 172.675" stroke="#29C0F1" stroke-width="0.5" stroke-miterlimit="10"/>
<path d="M149.745 173.45C149.745 173.45 162.21 179.862 182.877 173.45" stroke="#29C0F1" stroke-width="0.5" stroke-miterlimit="10"/>
<path d="M151.69 175.931C151.69 175.931 162.036 179.405 179.112 175.931" stroke="#29C0F1" stroke-width="0.5" stroke-miterlimit="10"/>
<path d="M154.358 177.797C154.358 177.797 163.357 180.219 178.24 177.797" stroke="#29C0F1" stroke-width="0.5" stroke-miterlimit="10"/>
<path d="M148.324 165.826C148.324 165.826 161.761 171.365 184.048 165.826" stroke="#29C0F1" stroke-width="0.5" stroke-miterlimit="10"/>
<path d="M148.324 164.595C148.324 164.595 161.761 170.134 184.048 164.595" stroke="#29C0F1" stroke-width="0.5" stroke-miterlimit="10"/>
<path d="M148.324 163.365C148.324 163.365 161.761 168.904 184.048 163.365" stroke="#29C0F1" stroke-width="0.5" stroke-miterlimit="10"/>
<path d="M149.371 162.173C149.371 162.173 161.836 167.712 182.727 162.173" stroke="#29C0F1" stroke-width="0.5" stroke-miterlimit="10"/>
<path d="M150.019 160.902C150.019 160.902 162.185 166.441 182.428 160.902" stroke="#29C0F1" stroke-width="0.5" stroke-miterlimit="10"/>
<path d="M150.917 159.91C150.917 159.91 162.659 164.556 182.079 159.91" stroke="#29C0F1" stroke-width="0.5" stroke-miterlimit="10"/>
<path d="M151.266 158.719C151.266 158.719 162.309 163.007 180.633 158.719" stroke="#29C0F1" stroke-width="0.5" stroke-miterlimit="10"/>
<path d="M152.911 157.826C152.911 157.826 163.157 161.598 180.11 157.826" stroke="#29C0F1" stroke-width="0.5" stroke-miterlimit="10"/>
<path d="M153.859 157.27C153.859 157.27 162.958 159.533 178.065 157.27" stroke="#29C0F1" stroke-width="0.5" stroke-miterlimit="10"/>
<path d="M154.656 156.059C154.656 156.059 163.133 158.798 177.093 156.059" stroke="#29C0F1" stroke-width="0.5" stroke-miterlimit="10"/>
<path d="M159.169 154.729C163.99 155.262 168.881 155.262 173.703 154.729" stroke="#29C0F1" stroke-width="0.5" stroke-miterlimit="10"/>
<path d="M157.075 155.106C157.075 155.106 163.955 157.667 175.348 155.106" stroke="#29C0F1" stroke-width="0.5" stroke-miterlimit="10"/>
<path d="M157.449 154.928C157.449 154.928 150.693 161.817 155.504 178.095" stroke="#29C0F1" stroke-width="0.5" stroke-miterlimit="10"/>
<path d="M159.343 154.411C159.343 154.411 151.864 161.796 157.15 179.226" stroke="#29C0F1" stroke-width="0.5" stroke-miterlimit="10"/>
<path d="M159.941 154.848C159.941 154.848 153.884 162.194 158.196 179.505" stroke="#29C0F1" stroke-width="0.5" stroke-miterlimit="10"/>
<path d="M161.712 154.332C161.712 154.332 155.23 161.935 159.817 179.921" stroke="#29C0F1" stroke-width="0.5" stroke-miterlimit="10"/>
<path d="M164.03 154.014C164.03 154.014 156.377 161.737 161.812 180.001" stroke="#29C0F1" stroke-width="0.5" stroke-miterlimit="10"/>
<path d="M165.526 154.232C165.526 154.232 158.496 161.895 163.481 180.04" stroke="#29C0F1" stroke-width="0.5" stroke-miterlimit="10"/>
<path d="M164.977 180.199C164.977 180.199 171.684 172.397 166.922 153.935" stroke="#29C0F1" stroke-width="0.5" stroke-miterlimit="10"/>
<path d="M166.598 180.279C166.598 180.279 173.303 172.477 168.542 154.014" stroke="#29C0F1" stroke-width="0.5" stroke-miterlimit="10"/>
<path d="M168.443 180.279C168.443 180.279 175.149 172.477 170.387 154.014" stroke="#29C0F1" stroke-width="0.5" stroke-miterlimit="10"/>
<path d="M169.764 180.279C169.764 180.279 177.392 172.537 171.983 154.252" stroke="#29C0F1" stroke-width="0.5" stroke-miterlimit="10"/>
<path d="M171.808 180.041C171.808 180.041 179.038 172.537 173.902 154.789" stroke="#29C0F1" stroke-width="0.5" stroke-miterlimit="10"/>
<path d="M173.528 179.723C173.528 179.723 181.007 172.398 175.672 155.106" stroke="#29C0F1" stroke-width="0.5" stroke-miterlimit="10"/>
<path d="M175.123 179.345C175.123 179.345 182.852 172.357 177.342 155.84" stroke="#29C0F1" stroke-width="0.5" stroke-miterlimit="10"/>
<path d="M177.268 178.194C177.268 178.194 185.594 172.08 179.761 157.607" stroke="#29C0F1" stroke-width="0.5" stroke-miterlimit="10"/>
<path d="M166.174 154.391L164.279 179.921" stroke="#29C0F1" stroke-width="0.5" stroke-miterlimit="10"/>
<path d="M155.928 155.543C155.928 155.543 148.623 162.054 153.809 177.38" stroke="#29C0F1" stroke-width="0.5" stroke-miterlimit="10"/>
<path d="M154.357 156.634C154.357 156.634 146.878 162.59 152.188 176.487" stroke="#29C0F1" stroke-width="0.5" stroke-miterlimit="10"/>
<path d="M168.293 153.915H164.08C155.378 153.915 148.324 159.532 148.324 166.462V167.653C148.324 174.582 155.378 180.199 164.08 180.199H168.293C176.994 180.199 184.048 174.582 184.048 167.653V166.462C184.048 159.532 176.994 153.915 168.293 153.915Z" stroke="#6AC1E7" stroke-miterlimit="10"/>
<path d="M172.88 154.114C176.57 155.583 183.475 149.409 183.475 149.409" stroke="#FAF5AC" stroke-miterlimit="10"/>
<path d="M183.475 149.508C182.054 152.923 188.985 159.434 188.985 159.434" stroke="#FAF5AC" stroke-miterlimit="10"/>
<path d="M188.935 159.513C185.246 158.024 178.315 164.199 178.315 164.199" stroke="#FAF5AC" stroke-miterlimit="10"/>
<path d="M178.315 164.159C179.736 160.745 172.805 154.233 172.805 154.233" stroke="#FAF5AC" stroke-miterlimit="10"/>
<path d="M166.543 91.8369L166.359 121.447L166.174 151.057" stroke="white" stroke-width="0.5" stroke-miterlimit="10"/>
<path d="M162.833 153.498H169.764L168.218 151.056H164.155L162.833 153.498Z" fill="white"/>
</g>
<defs>
<clipPath id="clip0_59_99">
<rect width="190" height="250" fill="white"/>
</clipPath>
</defs>
</svg>
