<svg width="157" height="37" viewBox="0 0 157 37" fill="none" xmlns="http://www.w3.org/2000/svg">
<path d="M8.464 36H13.6V7.536H21.904V2.4H0.16V7.536H8.464V36ZM26.8465 36H31.5025V11.664H26.8465V36ZM26.4625 4.56C26.4625 6.048 27.7105 7.248 29.1505 7.248C30.6385 7.248 31.8865 6.048 31.8865 4.56C31.8865 3.072 30.6385 1.872 29.1505 1.872C27.7105 1.872 26.4625 3.072 26.4625 4.56ZM36.9213 36H41.6253V23.328L51.3693 36H57.2733L47.0973 22.848L55.7853 11.664H50.2653L41.6253 22.848V0.239997H36.9213V36ZM64.0113 36.576C65.6913 36.576 67.0833 35.184 67.0833 33.456C67.0833 31.776 65.6913 30.384 64.0113 30.384C62.2833 30.384 60.8913 31.776 60.8913 33.456C60.8913 35.184 62.2833 36.576 64.0113 36.576ZM80.8859 36H86.0219V7.536H94.3259V2.4H72.5819V7.536H80.8859V36ZM107.317 36.528C111.013 36.528 114.037 34.992 116.197 32.688V36H120.901V11.664H116.197V14.928C114.037 12.672 111.013 11.088 107.317 11.088C100.261 11.088 94.7894 16.752 94.7894 23.808C94.7894 30.864 100.261 36.528 107.317 36.528ZM99.5414 23.808C99.5414 19.344 103.285 15.792 107.749 15.792C112.213 15.792 116.005 19.344 116.005 23.808C116.005 28.272 112.213 31.824 107.749 31.824C103.285 31.824 99.5414 28.272 99.5414 23.808ZM126.171 36H130.875V23.328L140.619 36H146.523L136.347 22.848L145.035 11.664H139.515L130.875 22.848V0.239997H126.171V36ZM153.261 36.576C154.941 36.576 156.333 35.184 156.333 33.456C156.333 31.776 154.941 30.384 153.261 30.384C151.533 30.384 150.141 31.776 150.141 33.456C150.141 35.184 151.533 36.576 153.261 36.576Z" fill="white"/>
</svg>
