<svg width="37" height="37" viewBox="0 0 37 37" fill="none" xmlns="http://www.w3.org/2000/svg">
<path d="M6.354 33.5102H12.165V14.0102H12.243L18.405 26.4902H23.124L29.325 13.8152H29.403V33.5102H35.136V5.66421H27.063L20.745 17.9492L14.31 5.66421H6.354V33.5102Z" fill="white"/>
<path d="M3.44 33H9.4V13H9.48L15.8 25.8H20.64L27 12.8H27.08V33H32.96V4.44H24.68L18.2 17.04L11.6 4.44H3.44V33Z" fill="black"/>
<path d="M3.44 33H2.44V34H3.44V33ZM9.4 33V34H10.4V33H9.4ZM9.4 13V12H8.4V13H9.4ZM9.48 13L10.3767 12.5573L10.1015 12H9.48V13ZM15.8 25.8L14.9033 26.2427L15.1785 26.8H15.8V25.8ZM20.64 25.8V26.8H21.264L21.5383 26.2395L20.64 25.8ZM27 12.8V11.8H26.376L26.1017 12.3605L27 12.8ZM27.08 12.8H28.08V11.8H27.08V12.8ZM27.08 33H26.08V34H27.08V33ZM32.96 33V34H33.96V33H32.96ZM32.96 4.44H33.96V3.44H32.96V4.44ZM24.68 4.44V3.44H24.0698L23.7907 3.98265L24.68 4.44ZM18.2 17.04L17.3142 17.504L18.2081 19.2107L19.0893 17.4973L18.2 17.04ZM11.6 4.44L12.4858 3.97599L12.2051 3.44H11.6V4.44ZM3.44 4.44V3.44H2.44V4.44H3.44ZM3.44 34H9.4V32H3.44V34ZM10.4 33V13H8.4V33H10.4ZM9.4 14H9.48V12H9.4V14ZM8.58334 13.4427L14.9033 26.2427L16.6967 25.3573L10.3767 12.5573L8.58334 13.4427ZM15.8 26.8H20.64V24.8H15.8V26.8ZM21.5383 26.2395L27.8983 13.2395L26.1017 12.3605L19.7417 25.3605L21.5383 26.2395ZM27 13.8H27.08V11.8H27V13.8ZM26.08 12.8V33H28.08V12.8H26.08ZM27.08 34H32.96V32H27.08V34ZM33.96 33V4.44H31.96V33H33.96ZM32.96 3.44H24.68V5.44H32.96V3.44ZM23.7907 3.98265L17.3107 16.5827L19.0893 17.4973L25.5693 4.89735L23.7907 3.98265ZM19.0858 16.576L12.4858 3.97599L10.7142 4.90401L17.3142 17.504L19.0858 16.576ZM11.6 3.44H3.44V5.44H11.6V3.44ZM2.44 4.44V33H4.44V4.44H2.44Z" fill="white"/>
</svg>
