<svg width="62" height="62" viewBox="0 0 62 62" fill="none" xmlns="http://www.w3.org/2000/svg">
<path d="M8.418 54H17.805V22.5H17.931L27.885 42.66H35.508L45.525 22.185H45.651V54H54.912V9.018H41.871L31.665 28.863L21.27 9.018H8.418V54Z" fill="white"/>
<path d="M5.504 52H15.04V20H15.168L25.28 40.48H33.024L43.2 19.68H43.328V52H52.736V6.304H39.488L29.12 26.464L18.56 6.304H5.504V52Z" fill="black"/>
<path d="M5.504 52H4.504V53H5.504V52ZM15.04 52V53H16.04V52H15.04ZM15.04 20V19H14.04V20H15.04ZM15.168 20L16.0647 19.5573L15.7895 19H15.168V20ZM25.28 40.48L24.3833 40.9227L24.6585 41.48H25.28V40.48ZM33.024 40.48V41.48H33.648L33.9223 40.9195L33.024 40.48ZM43.2 19.68V18.68H42.576L42.3017 19.2405L43.2 19.68ZM43.328 19.68H44.328V18.68H43.328V19.68ZM43.328 52H42.328V53H43.328V52ZM52.736 52V53H53.736V52H52.736ZM52.736 6.304H53.736V5.304H52.736V6.304ZM39.488 6.304V5.304H38.8778L38.5987 5.84665L39.488 6.304ZM29.12 26.464L28.2342 26.928L29.1281 28.6347L30.0093 26.9213L29.12 26.464ZM18.56 6.304L19.4458 5.83999L19.1651 5.304H18.56V6.304ZM5.504 6.304V5.304H4.504V6.304H5.504ZM5.504 53H15.04V51H5.504V53ZM16.04 52V20H14.04V52H16.04ZM15.04 21H15.168V19H15.04V21ZM14.2713 20.4427L24.3833 40.9227L26.1767 40.0373L16.0647 19.5573L14.2713 20.4427ZM25.28 41.48H33.024V39.48H25.28V41.48ZM33.9223 40.9195L44.0983 20.1195L42.3017 19.2405L32.1257 40.0405L33.9223 40.9195ZM43.2 20.68H43.328V18.68H43.2V20.68ZM42.328 19.68V52H44.328V19.68H42.328ZM43.328 53H52.736V51H43.328V53ZM53.736 52V6.304H51.736V52H53.736ZM52.736 5.304H39.488V7.304H52.736V5.304ZM38.5987 5.84665L28.2307 26.0067L30.0093 26.9213L40.3773 6.76134L38.5987 5.84665ZM30.0058 26L19.4458 5.83999L17.6742 6.768L28.2342 26.928L30.0058 26ZM18.56 5.304H5.504V7.304H18.56V5.304ZM4.504 6.304V52H6.504V6.304H4.504Z" fill="white"/>
</svg>
